<svg xmlns="http://www.w3.org/2000/svg" width="48" height="48" viewBox="0 0 48 48"><g><g><g/><g><g/><g><path fill="#fff" d="M29.14 13.62h11.998v3.445H29.14z"/></g><g><path fill="#fff" d="M29.14 22.24h11.998v3.445H29.14z"/></g><g><path fill="#fff" d="M29.14 30.85h11.998v3.445H29.14z"/></g><g><path fill="#fff" d="M44.563 5.01c.91 0 1.78.364 2.423 1.01a3.457 3.457 0 0 1 1.005 2.435v31.008a3.459 3.459 0 0 1-1.005 2.435 3.425 3.425 0 0 1-2.422 1.01H3.427c-.909 0-1.78-.364-2.423-1.01A3.458 3.458 0 0 1 0 39.463V8.455c0-.913.362-1.789 1.005-2.435a3.423 3.423 0 0 1 2.423-1.01zM3.428 39.463h18.854V8.455H3.428zm41.139 0l-.004-31.008H25.71v31.008z"/></g></g></g></g></svg>