<svg xmlns="http://www.w3.org/2000/svg" width="49" height="48" viewBox="0 0 49 48"><g><g><g/><g><g/><g><path fill="#0d5c63" d="M20.882 36c1.16 0 2.283-.331 3.295-.897L19.32 47.067a1.49 1.49 0 0 1-2.467.465l-3.382-3.589-4.918.189c-1.084.04-1.85-1.056-1.44-2.066l4.235-10.428c.705.55 1.486 1.01 2.373 1.248 1.956.526 1.534.297 2.345 1.111a6.754 6.754 0 0 0 4.817 2.004zm21.846 6.066c.41 1.01-.355 2.107-1.44 2.066l-4.918-.189-3.383 3.589a1.49 1.49 0 0 1-2.467-.465l-4.858-11.964c1.012.565 2.135.898 3.296.898 1.82 0 3.53-.712 4.818-2.004.809-.812.378-.582 2.344-1.11.888-.24 1.668-.698 2.374-1.25zm-15.823-9.645a3.691 3.691 0 0 0-3.97 0 3.697 3.697 0 0 1-4.641-.545c-1.375-1.407-1.531-1.317-3.62-1.888a3.802 3.802 0 0 1-2.657-2.717c-.698-2.663-.517-2.341-2.422-4.29a3.903 3.903 0 0 1-.973-3.71c.698-2.665.698-2.294 0-4.953a3.899 3.899 0 0 1 .973-3.71c1.905-1.949 1.725-1.628 2.422-4.29a3.802 3.802 0 0 1 2.657-2.716c2.603-.714 2.29-.528 4.195-2.476a3.7 3.7 0 0 1 3.63-.995c2.605.714 2.242.713 4.843 0a3.703 3.703 0 0 1 3.63.995c1.907 1.949 1.593 1.762 4.195 2.476a3.802 3.802 0 0 1 2.658 2.717c.698 2.661.517 2.34 2.422 4.289.949.97 1.32 2.385.972 3.71-.698 2.664-.697 2.292 0 4.953a3.901 3.901 0 0 1-.973 3.71c-1.904 1.949-1.723 1.627-2.421 4.29a3.802 3.802 0 0 1-2.658 2.717c-2.03.556-2.194.43-3.62 1.888a3.696 3.696 0 0 1-4.642.545zM24.92 25.5c4.863 0 8.805-4.03 8.805-9.002s-3.942-9.002-8.805-9.002c-4.862 0-8.805 4.03-8.805 9.002s3.943 9.002 8.805 9.002z"/></g></g></g></g></svg>