<svg xmlns="http://www.w3.org/2000/svg" width="49" height="48" viewBox="0 0 49 48"><g><g><g/><g><g/><g><path fill="#0d5c63" d="M43.587 12.53a5.07 5.07 0 0 1 5.07 5.069v23.658a3.38 3.38 0 0 1-3.38 3.38H4.72a3.38 3.38 0 0 1-3.38-3.38V17.6a5.07 5.07 0 0 1 5.07-5.07h5.07V7.46a3.38 3.38 0 0 1 3.379-3.379h20.279a3.38 3.38 0 0 1 3.38 3.38v5.07h5.069zm-28.728 0h20.279V7.46H14.859zm30.418 13.518h-13.52v8.45H18.24v-8.45H4.719v15.21h40.558zm-23.659 5.07h6.76v-5.07h-6.76zm23.659-8.45V17.6a1.69 1.69 0 0 0-1.69-1.69H6.41a1.69 1.69 0 0 0-1.69 1.69v5.07z"/></g></g></g></g></svg>