<svg xmlns="http://www.w3.org/2000/svg" width="73" height="72" viewBox="0 0 73 72"><g><g><g/><g><path fill="#0d5c63" d="M72.08 54.152a3.783 3.783 0 0 1 0 5.357L61.804 69.783a7.486 7.486 0 0 1-5.323 2.22h-.106c-5.398-.091-24.136-1.515-38.903-16.283C2.706 40.953 1.278 22.216 1.191 16.821a7.571 7.571 0 0 1 2.22-5.436L13.685 1.11a3.787 3.787 0 0 1 5.357 0l15.153 15.153a3.786 3.786 0 0 1 0 5.357l-6.038 6.039c.833 2.8 2.727 8.024 6.038 11.335 3.311 3.31 8.536 5.205 11.335 6.038l6.039-6.038a3.785 3.785 0 0 1 5.357 0zm-8.036 2.675l-9.797-9.797-4.902 4.898a3.754 3.754 0 0 1-3.455 1.027c-.436-.091-10.766-2.315-17.055-8.603-6.289-6.29-8.513-16.62-8.604-17.056a3.788 3.788 0 0 1 1.03-3.455l4.9-4.898-9.798-9.797-7.595 7.596c.075 4.633 1.31 20.866 14.062 33.618 12.71 12.714 28.887 13.983 33.615 14.062z"/></g></g></g></svg>