<svg xmlns="http://www.w3.org/2000/svg" width="73" height="72" viewBox="0 0 73 72"><g><g><g/><g><path fill="#fff" d="M15 28c0-7.721 6.503-14 14.5-14S44 20.279 44 28s-6.503 14-14.5 14S15 35.721 15 28zm7.25 0c0 3.86 3.252 7 7.25 7s7.25-3.14 7.25-7-3.252-7-7.25-7-7.25 3.14-7.25 7z"/></g><g><path fill="#fff" d="M1 28.383C1 12.74 13.786 0 29.5 0S58 12.741 58 28.4c.103 22.862-25.35 41.177-26.434 41.94a3.564 3.564 0 0 1-4.132 0C26.35 69.577.897 51.262 1 28.382zm7.125.017C8.05 44.166 23.761 58.316 29.5 62.96c5.743-4.64 21.45-18.787 21.375-34.542C50.875 16.653 41.288 7.1 29.5 7.1S8.125 16.653 8.125 28.4z"/></g></g></g></svg>