<svg xmlns="http://www.w3.org/2000/svg" width="70" height="73" viewBox="0 0 70 73"><g><g><path fill="#0d5c63" d="M69.09 2.647c.108.558.06 1.136-.136 1.667L45.88 70.31a2.991 2.991 0 0 1-1.032 1.418c-.474.354-1.04.55-1.622.562a2.811 2.811 0 0 1-1.57-.541 2.983 2.983 0 0 1-1.026-1.349L29.552 41.602l-27.69-11.52a2.905 2.905 0 0 1-1.351-1.1A3.084 3.084 0 0 1 0 27.276c0-.608.178-1.203.51-1.704a2.904 2.904 0 0 1 1.352-1.1l63.458-24A2.78 2.78 0 0 1 66.93.36a2.853 2.853 0 0 1 1.418.805c.378.411.636.925.743 1.483zm-7.607 5.656L10.92 27.293l20.076 8.489 13.932-14.49 4.067 4.23-13.817 14.37 8.048 20.999z"/></g></g></svg>