<svg xmlns="http://www.w3.org/2000/svg" width="103" height="35" viewBox="0 0 103 35"><g><g><path fill="#737373" d="M23.252 29.869a43.037 43.037 0 0 0 6.164 2.682l-6.164-.128zm9.286 1.708c4.747 1.708 8.916 2.155 12.118 2.123-3.99 1.117-9.366.846-15.24-1.15l3.122-.127zM93.694 8.575c0-2.538 2.092-3.91 4.651-3.91 2.575 0 4.651 1.356 4.651 3.91 0 2.554-2.092 4.613-4.65 4.613-2.576 0-4.652-2.075-4.652-4.613zm-.016 6.21h9.318v17.638h-9.318zM81.817 5.605l9.318-4.358v31.175h-9.318zM79.532 21.76c0 2.985.225 5.475-2.704 8.38-2.913 2.905-8.112 2.73-8.112 2.73s-5.182.175-8.11-2.73c-2.93-2.905-2.705-5.395-2.705-8.38 0-2.985-.225-5.491 2.704-8.396 2.913-2.905 8.112-2.73 8.112-2.73s5.182-.175 8.11 2.73c2.914 2.889 2.688 5.395 2.704 8.396zm-9.11-3.368c0-1.405-1.174-1.74-1.722-1.74-.547 0-1.722.351-1.722 1.74v6.449c0 .574.29 1.995 1.722 1.995 1.433 0 1.722-1.42 1.722-1.995zm-14.403 3.32c0 2.985.241 5.475-2.688 8.38-2.913 2.905-8.111 2.73-8.111 2.73s-5.182.175-8.112-2.73c-2.929-2.905-2.703-5.395-2.703-8.38 0-2.49-.145-4.645 1.496-6.976-2.575-1.883-9.334-5.97-16.077-9.306v8.668a7.13 7.13 0 0 1 6.196-3.496c4.377 0 6.534 2.985 6.534 5.97v14.989a43.035 43.035 0 0 1-9.286-4.725v-7.774c0-1.293-.242-2.394-1.706-2.394-1.465 0-1.738 1.804-1.738 2.905v4.757l-.724-.575c-3.686-3.017-6.486-5.682-8.595-8.029v4.948a99.406 99.406 0 0 0 6.18 5.013c1.03.782 2.077 1.5 3.123 2.17v4.566h-9.319V20.659C-3.464 8.208.543 2.972.543 2.972 1.88.052 7.448-.57 16.203 2.956l3.62-1.692v3.304c4.765 2.33 10.285 5.029 16.432 9.753.258-.335.548-.654.853-.957 2.93-2.905 8.112-2.73 8.112-2.73s5.182-.175 8.11 2.73c2.93 2.889 2.689 5.395 2.689 8.348zM15.189 3.42c-4.33-1.612-8.192-2.155-10.365-.335-.595.495-2.172 3.927 5.665 12.626V5.606zm31.753 14.973c0-1.405-1.175-1.74-1.722-1.74-.547 0-1.722.351-1.722 1.74v6.449c0 .574.29 1.995 1.722 1.995s1.722-1.42 1.722-1.995z"/></g></g></svg>