<svg xmlns="http://www.w3.org/2000/svg" width="105" height="63" viewBox="0 0 105 63"><g><g><path fill="#737373" d="M29.886 22.993c-.117 3.638 1.717 5.25 1.762 6.273a1.304 1.304 0 0 1-.664 1.007l-2.074 1.439a1.737 1.737 0 0 1-.912.308c-.07-.003-1.326.294-3.317-4.113a12.718 12.718 0 0 1-4.518 3.53 12.826 12.826 0 0 1-5.625 1.2c-2.637.143-9.784-1.484-9.416-9.029-.258-6.148 5.517-9.968 11.49-9.645 1.15.003 3.499.06 7.612 1.007v-2.509c.436-4.25-2.381-7.547-7.259-7.053-.389.002-3.143-.08-7.426 1.624-1.192.543-1.344.453-1.741.453-1.2 0-.707-3.45-.476-3.887C8.166 2.57 13.13.651 18.003.678a12.522 12.522 0 0 1 9.022 2.776 11.268 11.268 0 0 1 2.3 3.914c.492 1.446.683 2.975.562 4.496zm-14 5.203c5.254-.076 7.478-3.208 7.985-4.894.398-1.615.332-2.636.332-4.401-1.567-.373-3.822-.78-6.409-.783-2.454-.183-6.936.905-6.761 5.182-.201 2.697 1.801 5.043 4.853 4.896zm27.688 3.702c-1.273.116-1.866-.78-2.054-1.666L33.453 3.786a6.092 6.092 0 0 1-.311-1.378.736.736 0 0 1 .136-.55.748.748 0 0 1 .489-.293c.039-.007-.345 0 3.604 0 1.423-.142 1.886.968 2.033 1.665l5.787 22.62 5.372-22.62c.085-.517.476-1.778 2.073-1.644h2.78c.351-.03 1.8-.08 2.054 1.665l5.414 22.91 5.973-22.91c.077-.35.44-1.826 2.054-1.665h3.194c.138-.021.996-.13.85 1.378-.07.297.553-1.713-8.545 27.29-.186.884-.78 1.78-2.054 1.665H61.33c-1.773.185-2.027-1.552-2.055-1.727L53.903 8.166l-5.31 22.004c-.026.175-.28 1.911-2.054 1.726h-2.965zm44.302.904c-.952.002-5.495-.048-9.292-1.974a2.07 2.07 0 0 1-.926-.766 2.044 2.044 0 0 1-.339-1.147V27.19c0-1.358 1.004-1.109 1.43-.946 1.627.652 2.67 1.146 4.667 1.542 5.938 1.209 8.549-.37 9.189-.72 2.13-1.254 2.298-4.125.85-5.614-1.698-1.412-2.507-1.465-8.607-3.373-.751-.207-7.079-2.186-7.093-8.41C77.656 5.132 81.813.644 89.017.681c2.052-.001 7.521.664 9.002 2.51.218.335.327.73.31 1.13v1.624c0 .713-.262 1.07-.788 1.07-1.25-.139-3.465-1.795-7.964-1.727-1.116-.058-6.462.146-6.222 4.01-.07 3.046 4.31 4.188 4.811 4.32 5.906 1.762 7.881 2.054 10.225 4.75 2.777 3.575 1.28 7.759.705 8.906-3.091 6.022-11.084 5.532-11.22 5.528zm6.512 16.843c-11.344 8.307-27.812 12.73-41.874 12.73-18.972.124-37.305-6.794-51.395-19.392C.06 42.037.994 40.74 2.28 41.462a103.933 103.933 0 0 0 51.333 13.511 102.843 102.843 0 0 0 39.136-7.959c1.908-.803 3.526 1.253 1.64 2.631zm4.729-5.347c-1.452-1.85-9.603-.864-13.253-.432-1.1.124-1.286-.822-.29-1.521 6.491-4.525 17.152-3.229 18.377-1.707 1.223 1.52-.332 12.112-6.409 17.172-.933.782-1.825.369-1.41-.659 1.367-3.413 4.436-11 2.985-12.853z"/></g></g></svg>