<svg xmlns="http://www.w3.org/2000/svg" width="77" height="73" viewBox="0 0 77 73"><g><g><path fill="#737373" d="M71.726 44.145c.351 1.266.495 2.678.495 4.025 0 13.438-15.072 24.326-33.657 24.326-18.505 0-33.578-10.888-33.578-24.326 0-1.347.128-2.694.415-3.961-8.126-4.09-5.22-16.052 3.657-16.052 2.395 0 4.582.994 6.13 2.614 5.717-3.96 13.317-6.51 21.763-6.863l4.854-22.065c.207-.786.974-1.347 1.756-1.139l15.551 3.464C60.166 2.13 62.29.64 64.75.64c3.528 0 6.338 2.902 6.338 6.366 0 3.464-2.826 6.366-6.338 6.366-3.45 0-6.26-2.822-6.26-6.286L44.408 3.911l-4.422 20.013c8.51.272 16.19 2.822 21.89 6.783 1.548-1.556 3.656-2.55 6.05-2.55 8.83 0 11.768 11.883 3.8 15.988zm-47.101 7.2c3.449 0 6.259-2.823 6.259-6.286 0-3.544-2.81-6.366-6.259-6.366-3.529 0-6.339 2.838-6.339 6.366 0 3.463 2.826 6.302 6.339 6.286zm27.861 6.51c-.558-.561-1.548-.561-2.107 0-4.63 4.65-19.351 4.57-23.79 0-.559-.561-1.549-.561-2.108 0-.638.642-.638 1.636 0 2.197 5.812 5.837 22.21 5.837 28.021 0 .639-.561.639-1.555-.016-2.197zm6.227-12.78a6.327 6.327 0 0 0-6.338-6.366c-3.45 0-6.26 2.838-6.26 6.366 0 3.463 2.81 6.286 6.26 6.286 3.512 0 6.322-2.839 6.338-6.286z"/></g></g></svg>