<svg xmlns="http://www.w3.org/2000/svg" width="84" height="59" viewBox="0 0 84 59"><g><g><path fill="#737373" d="M.5.998h12.612v34.014c0 5.395 2.432 8.606 4.41 9.943-2.06 1.809-8.3 3.406-13.002-.457C1.764 42.216.5 38.418.5 34.882zm78.769 28.277a4.228 4.228 0 0 0 4.231 4.222v12.468c-9.192 0-16.649-7.513-16.649-16.738V16.66c0-5.64-8.462-5.64-8.462 0v3.797h6.29v12.517h-6.29v1.092c0 3.553-1.248 7.334-4.02 9.616-2.642 2.233-5.787 2.657-8.381 2.282V16.758C45.988 7.518 53.46.02 62.637.02c7.96 0 14.622 5.607 16.26 13.153h4.23V25.69H79.27zM31.56 13.06H44.06v29.043c0 8.54-4.815 14.946-12.45 16.429-4.231.831-8.511.456-12.58-.766V46.307c1.589.685 4.782 1.532 7.295 1.272 3.307-.326 5.317-1.94 5.658-4.124 0 0-3.437 3.325-9.435 1.728-5.998-1.614-7.295-6.536-7.295-10.415V13.14h12.45v18.417c0 2.51 3.858 2.51 3.858 0z"/></g></g></svg>