<svg xmlns="http://www.w3.org/2000/svg" width="102" height="75" viewBox="0 0 102 75"><g><g><path fill="#737373" d="M102 .15C89.123 8.832 87.752 15.134 86.636 17.061c-1.068 1.977-1.864 9.768-3.713 13.543-1.865 3.823-8.638 6.835-10.535 8.099-1.865 1.263-4.51 6.172-6.678 10.4-17.228-.713-26.68 6.285-41.31 15.161 4.686-1.57 6.901-2.705 6.901-2.705 15.013-5.831 22.201-11.063 44.8-7.97.176 0 .303.098.447.13a1.28 1.28 0 0 1 .494 1.75l-8.59 15.518a1.905 1.905 0 0 1-2.088.988c-20.209-3.855-36.162 2.802-50.825 3.013C3.841 75.166 0 69.561 0 69.302c0-.178.096-.275.27-.275 0 0 6.105 0 16.433-2.478 11.73-22.727 22.184-30.68 33.564-30.68 0 0 11.427 0 14.44 10.026 3.633-6.43 4.51-7.97 4.51-7.97.844-1.522 5.578-12.505 13.77-22.905C91.194 4.653 97.394 2.078 102 .15z"/></g></g></svg>