<svg xmlns="http://www.w3.org/2000/svg" width="103" height="43" viewBox="0 0 103 43"><g><g><path fill="#737373" d="M26.575 9.918h5.423v6.014h-5.423v10.054c0 4.169 4.506 2.864 5.423 2.498v5.377c-.95.51-2.671.939-5.021.939-4.233 0-7.42-2.704-7.42-6.889l.033-22.654 6.969-1.464zm14.323 2.084c1.674-3.038 5.005-2.418 5.97-2.084v6.491c-.916-.286-3.765-.716-5.455 1.48V34.29h-7.13V9.918h6.18zM55.753 6.26L48.575 7.77V2.011L55.753.5zM18.158 27.18c0 5.092-4.088 7.605-10.027 7.605-2.462 0-5.15-.477-7.805-1.607v-6.363c2.398 1.288 5.456 2.259 7.821 2.259 1.594 0 2.736-.43 2.736-1.734 0-3.373-10.863-2.1-10.863-9.928 0-4.995 3.862-7.986 9.656-7.986 2.366 0 4.732.366 7.098 1.289v6.65C14.6 16.202 11.833 15.55 9.66 15.55c-1.497.016-2.43.446-2.43 1.543 0 3.182 10.928 1.67 10.928 10.087zm84.749-2.258H88.922c.322 3.309 2.768 4.279 5.552 4.279 2.833 0 5.07-.589 7.017-1.56v5.314c-1.947 1.066-4.506 1.83-7.918 1.83-6.952 0-11.829-3.93-11.829-12.44 0-7.192 4.136-12.903 10.928-12.903 6.791 0 10.332 5.711 10.332 12.95 0 .684-.064 2.163-.097 2.53zm-6.662-5.203c0-3.182-1.867-4.518-3.622-4.518-1.786 0-3.765 1.336-3.765 4.518zm-15.82 2.402c0 8.973-4.668 12.664-9.786 12.664-2.494 0-4.023-1.034-5.053-1.782l-.016 7.987-7.146 1.495V9.902h6.293l.37 1.75c.998-.906 2.8-2.211 5.6-2.211 5.022 0 9.754 4.47 9.737 12.68zm-7.034.16c0-3.691-1.802-6.587-4.41-6.587-1.64 0-2.67.589-3.411 1.4l.048 10.5c.692.732 1.69 1.337 3.364 1.337 2.655 0 4.426-2.848 4.41-6.65zm-24.8-12.362h7.178v24.373H48.59z"/></g></g></svg>